HIERARCHY
ROOT Hips
{
	OFFSET 0.000000 0.000000 0.000000 
	CHANNELS 6 Xposition Yposition Zposition Yrotation Zrotation Xrotation 
	JOINT Lumbar
	{
		OFFSET 0.000000 0.000000 0.000000 
		CHANNELS 3 Zrotation Xrotation Yrotation
		JOINT Neck
		{
			OFFSET 0.000000 0.445665 0.000000 
			CHANNELS 3 Zrotation Xrotation Yrotation
			End Site
			{
				OFFSET 0.000000 0.227535 0.000000 
			}
		}
		JOINT RightShoulder
		{
			OFFSET 0.019635 0.377685 0.194865 
			CHANNELS 3 Zrotation Xrotation Yrotation
			JOINT RightElbow
			{
				OFFSET 0.000000 -0.243375 0.000000 
				CHANNELS 2 Zrotation Yrotation
				JOINT RightWrist
				{
					OFFSET 0.000000 -0.264825 0.000000 
					CHANNELS 2 Zrotation Xrotation
					End Site
					{
						OFFSET 0.006600 -0.176220 0.000990 
					}
				}
			}
		}
		JOINT LeftShoulder
		{
			OFFSET 0.019635 0.377685 -0.194865 
			CHANNELS 3 Zrotation Xrotation Yrotation
			JOINT LeftElbow
			{
				OFFSET 0.000000 -0.243375 0.000000 
				CHANNELS 2 Zrotation Yrotation
				JOINT LeftWrist
				{
					OFFSET 0.000000 -0.264825 0.000000 
					CHANNELS 2 Zrotation Xrotation
					End Site
					{
						OFFSET 0.006600 -0.176220 -0.000990 
					}
				}
			}
		}
	}
	JOINT RightHip
	{
		OFFSET 0.052140 -0.069960 0.075570 
		CHANNELS 3 Zrotation Xrotation Yrotation
		JOINT RightKnee
		{
			OFFSET 0.000000 -0.402270 0.000000 
			CHANNELS 1 Zrotation
			JOINT RightAnkle
			{
				OFFSET 0.000000 -0.404085 0.000000 
				CHANNELS 3 Zrotation Xrotation Yrotation
				End Site
				{
					OFFSET 0.204105 -0.089430 0.008415 
				}
			}
		}
	}
	JOINT LeftHip
	{
		OFFSET 0.052140 -0.069960 -0.075570 
		CHANNELS 3 Zrotation Xrotation Yrotation
		JOINT LeftKnee
		{
			OFFSET 0.000000 -0.402270 0.000000 
			CHANNELS 1 Zrotation
			JOINT LeftAnkle
			{
				OFFSET 0.000000 -0.404085 0.000000 
				CHANNELS 3 Zrotation Xrotation Yrotation
				End Site
				{
					OFFSET 0.204105 -0.089430 -0.008415 
				}
			}
		}
	}
}
MOTION
Frames: 33
Frame Time: 0.02
-1.69237 -0.34784 -0.37878 -326.66722 -64.56737 -21.46361 -7.2608 1.62926 1.9486 6.99536 -16.77829 -2.11994 81.4392 -22.02971 -1.74188 8.85008 90.32421 -5.03603 -17.1375 96.94278 28.94475 21.74873 5.81388 -76.27919 0.2028 9.23634 108.12298 -15.51734 -5.49104 -42.5654 -8.9823 -1.8465 -3.25548 115.7446 1.37472 8.47387 -49.96809 -8.82384 3.49027 4.05154
-1.69264 -0.34954 -0.37916 -327.83115 -64.90587 -22.51129 -7.64782 1.75315 1.49341 7.95861 -17.36927 -2.11994 82.5236 -20.82108 -2.67766 8.68037 89.22538 -4.04558 -16.85809 99.02798 30.1791 33.98301 5.7697 -75.70781 1.34214 8.00406 108.98417 -15.0052 -4.75949 -43.10838 -8.96653 -1.92914 -3.2937 116.72976 1.35585 7.77372 -50.66493 -8.84244 3.53062 4.07059
-1.69292 -0.35152 -0.37933 -329.16455 -65.29753 -23.73249 -8.01129 1.88435 1.02866 9.01998 -17.85774 -2.11994 83.6271 -19.55018 -3.39886 8.57498 88.31844 -3.10214 -16.31263 101.32252 31.42898 46.8978 5.79518 -76.29193 2.0123 6.40131 109.9866 -14.40711 -3.90178 -43.73674 -8.95001 -2.02442 -3.33745 117.86824 1.28867 6.87443 -51.433 -8.85284 3.6017 4.10596
-1.69318 -0.35337 -0.37959 -330.41612 -65.65856 -24.87114 -8.38873 2.01207 0.57523 10.02583 -18.38978 -2.11994 84.7154 -18.30938 -4.20291 8.44199 87.16705 -2.11649 -15.88846 103.4866 32.64204 59.17294 5.79593 -76.33247 2.87835 5.0259 110.9151 -13.88018 -3.17769 -44.32685 -8.93231 -2.10628 -3.37494 118.92845 1.23301 6.04896 -52.16676 -8.82695 3.69643 4.15422
-1.69351 -0.35525 -0.37985 -331.69957 -66.0466 -26.03555 -8.75648 2.14074 0.0879 11.08445 -18.93921 -2.11994 85.83992 -17.0496 -5.08291 8.30023 86.63672 -1.20498 -15.46369 105.80934 33.99569 72.97386 5.77307 -76.41842 3.84094 3.39918 111.88781 -13.21767 -2.14227 -44.91681 -8.92095 -2.21963 -3.42781 120.02994 1.22104 5.28306 -52.91265 -8.96342 3.63845 4.12043
-1.69368 -0.35713 -0.38006 -332.94614 -66.39116 -27.17729 -9.13625 2.26867 -0.32764 12.05194 -19.42653 -2.11994 86.8882 -15.82181 -5.74841 8.19271 84.89677 -0.16018 -14.97849 107.84025 35.0475 83.65898 5.8127 -76.69793 4.47875 2.2082 112.79971 -12.81527 -1.71209 -45.52568 -8.89642 -2.27155 -3.45053 121.07739 1.10802 4.35624 -53.64677 -8.76819 3.89847 4.25693
-1.69345 -0.35904 -0.38018 -334.1252 -66.60186 -28.29064 -9.56659 2.39746 -0.56267 12.76645 -19.76217 -2.11994 87.74387 -14.66315 -5.87348 8.16496 79.4968 1.32107 -14.36791 109.10335 35.34582 86.18439 6.02521 -77.22053 4.37336 2.31909 113.52116 -13.17596 -3.09748 -46.17548 -8.83362 -2.14082 -3.3837 121.96823 0.71245 2.95789 -54.35364 -7.58714 5.08935 4.8968
-1.69305 -0.36094 -0.38026 -335.24543 -66.76684 -29.3596 -10.00677 2.52439 -0.72015 13.38004 -20.03765 -2.11994 88.51573 -13.54718 -5.7884 8.16989 72.92563 2.92604 -13.70964 110.04744 35.3221 85.43187 6.2973 -77.9081 3.94631 2.88021 114.17316 -13.79737 -5.07522 -46.83881 -8.75799 -1.9497 -3.28726 122.79259 0.21999 1.42029 -55.04111 -6.08676 6.58652 5.7
-1.69272 -0.36281 -0.38034 -336.34365 -66.95372 -30.39931 -10.43497 2.64906 -0.90069 14.02553 -20.34531 -2.11994 89.31186 -12.43436 -5.79763 8.15909 67.07301 4.43607 -13.08825 111.08051 35.39127 85.76154 6.52631 -78.52526 3.63954 3.23043 114.84995 -14.28397 -6.70718 -47.49018 -8.68961 -1.79277 -3.20762 123.62845 -0.21875 -0.00467 -55.72309 -4.77865 7.90559 6.40464
-1.69245 -0.36486 -0.38046 -337.65813 -67.13902 -31.65734 -10.89599 2.78701 -1.13656 14.73739 -20.63515 -2.11994 90.17239 -11.22077 -5.80378 8.15285 60.44311 6.10886 -12.39346 112.36251 35.69133 87.81251 6.8132 -79.14657 3.43012 3.59433 115.5639 -14.83597 -8.65758 -48.17142 -8.61521 -1.60782 -3.11404 124.55232 -0.70181 -1.64959 -56.47048 -3.26784 9.39557 7.21461
-1.69199 -0.36651 -0.3805 -338.50039 -67.31444 -32.44337 -11.28891 2.89685 -1.23422 15.28086 -20.94151 -2.11994 90.872 -10.23211 -5.77031 8.14574 55.14803 7.47162 -11.84364 113.04102 35.4281 85.52098 7.00808 -79.80398 2.94255 4.04138 116.1776 -15.31538 -10.08764 -48.7896 -8.5503 -1.46669 -3.04239 125.27053 -1.11273 -2.8611 -57.07298 -2.10773 10.59489 7.84124
-1.6911 -0.36717 -0.38034 -338.1003 -67.48667 -31.9747 -11.51167 2.9289 -1.00815 15.42513 -21.37415 -2.11994 91.20356 -9.81879 -5.66922 8.11333 53.86186 7.95428 -11.70791 112.18546 33.73851 71.78357 6.80059 -80.33514 1.81279 4.61057 116.56837 -15.52653 -9.93292 -49.25453 -8.51478 -1.4614 -3.03856 125.47493 -1.32016 -2.89154 -57.30658 -1.95657 10.97857 7.9442
-1.69002 -0.3674 -0.3801 -337.21811 -67.6475 -31.02534 -11.66182 2.93283 -0.63929 15.39542 -21.81394 -2.11994 91.36543 -9.63615 -5.53811 8.08124 53.95515 8.11853 -11.72084 110.7227 31.48565 53.84365 6.52162 -80.92158 0.40976 5.24901 116.85254 -15.65714 -9.23671 -49.6503 -8.48922 -1.5021 -3.05773 125.46678 -1.44821 -2.47221 -57.39 -2.17519 11.04905 7.85345
-1.68899 -0.36776 -0.3799 -336.52382 -67.80525 -30.26943 -11.83205 2.94998 -0.30897 15.41767 -22.20737 -2.11994 91.5684 -9.37285 -5.42839 8.05864 53.38778 8.42617 -11.66546 109.50083 29.45503 37.9794 6.36455 -81.6041 -0.89939 5.85623 117.16119 -15.82734 -8.78923 -50.06177 -8.45906 -1.52182 -3.0664 125.53042 -1.59909 -2.22322 -57.52417 -2.25075 11.22015 7.83564
-1.68808 -0.36841 -0.37969 -335.95608 -67.99771 -29.61462 -12.05732 2.96508 -0.08323 15.55016 -22.77956 -2.11994 91.92091 -9.01362 -5.27947 7.99714 52.90823 8.7485 -11.61073 108.41458 27.54739 21.25895 5.83803 -81.799 -2.10055 6.47901 117.57071 -15.99271 -8.34533 -50.5413 -8.4288 -1.54031 -3.07448 125.69672 -1.80755 -2.11683 -57.73056 -2.21475 11.57153 7.88433
-1.68688 -0.36836 -0.37948 -335.01504 -68.11398 -28.63943 -12.15038 2.97794 0.38825 15.41395 -22.98327 -2.11994 91.92227 -8.90257 -5.20661 8.01555 52.60608 8.95689 -11.59149 106.90752 25.26437 5.41948 6.05586 -82.99833 -3.57665 7.07857 117.74319 -16.1472 -7.76497 -50.86105 -8.40127 -1.5724 -3.08934 125.59936 -1.87815 -1.61253 -57.7524 -2.49673 11.47727 7.75004
-1.68492 -0.36652 -0.37928 -333.12799 -68.03791 -26.86547 -11.89798 2.98999 1.54534 14.57056 -22.15746 -2.11994 91.00039 -9.46977 -5.36418 8.26008 52.30456 8.98357 -11.62644 104.37585 21.99903 -7.40278 8.40721 -87.14461 -5.83463 7.60754 117.30895 -16.2756 -6.87391 -50.76876 -8.37889 -1.63693 -3.12019 124.82903 -1.56781 -0.05331 -57.29185 -3.62323 10.15607 7.12521
-1.68268 -0.36399 -0.37907 -330.88972 -67.88283 -24.79274 -11.51487 3.00078 2.93611 13.46474 -20.96376 -2.11994 89.73109 -10.26863 -5.59885 8.58322 52.16258 8.89799 -11.69322 101.44756 18.39544 -19.09684 11.49642 -92.26375 -8.34173 8.10637 116.63652 -16.39669 -5.87291 -50.51611 -8.35898 -1.71279 -3.15672 123.80156 -1.12446 1.87796 -56.65395 -5.04839 8.40895 6.32804
-1.68056 -0.36177 -0.37886 -328.83255 -67.75428 -22.8766 -11.19003 3.01347 4.19258 12.48466 -19.94431 -2.11994 88.61731 -10.92974 -5.78965 8.86735 52.06009 8.82419 -11.75116 98.7069 14.9995 -30.99655 14.21041 -96.81421 -10.6741 8.61017 116.05864 -16.53114 -4.96366 -50.3282 -8.33795 -1.7797 -3.18887 122.88866 -0.75469 3.59779 -56.10185 -6.30057 6.90361 5.63055
-1.67843 -0.35955 -0.37867 -326.66223 -67.6653 -20.85195 -10.86645 3.02066 5.57466 11.47104 -18.89132 -2.11994 87.50508 -11.73896 -6.01294 9.16789 51.55519 8.89556 -11.79229 95.90438 11.34425 -44.33027 17.09893 -101.9019 -13.27497 9.15438 115.53304 -16.62375 -3.86239 -50.17049 -8.31717 -1.86398 -3.22928 121.97331 -0.32761 5.51716 -55.517 -7.72099 5.18535 4.83685
-1.67627 -0.35718 -0.37843 -324.65745 -67.47477 -18.99347 -10.51139 3.03799 6.74633 10.46733 -17.82567 -2.11994 86.31246 -12.288 -6.19182 9.44977 51.87962 8.65391 -11.87184 93.15611 8.17091 -54.36798 19.78937 -106.0998 -15.37333 9.60523 114.84561 -16.79877 -3.13829 -49.91487 -8.29641 -1.91449 -3.25368 121.0106 0.01169 7.09706 -54.96717 -8.85932 3.81175 4.20437
-1.67406 -0.35448 -0.37805 -323.13859 -67.0284 -17.62816 -10.09138 3.09574 7.29903 9.55656 -16.773 -2.11994 84.95752 -12.09299 -6.18707 9.68827 54.70256 7.47255 -12.0686 90.56119 6.28673 -55.42601 21.8407 -107.60632 -16.00843 9.81306 113.75192 -17.23782 -3.51554 -49.40978 -8.27442 -1.86614 -3.23122 119.93048 0.06736 7.70174 -54.49473 -9.12416 3.51032 4.06635
-1.67183 -0.35168 -0.3776 -321.81166 -66.48214 -16.45029 -9.64668 3.16175 7.62746 8.66637 -15.72818 -2.11994 83.53977 -11.62182 -6.14036 9.90062 58.30451 5.99941 -12.29902 88.0571 4.9241 -53.20877 23.64867 -108.17968 -16.12895 9.92584 112.50813 -17.75415 -4.27237 -48.81563 -8.25244 -1.78373 -3.19259 118.82138 0.03146 7.94048 -54.07354 -9.09615 3.56911 4.09618
-1.66964 -0.34898 -0.37718 -320.43665 -65.97763 -15.21418 -9.21989 3.21603 8.04535 7.7656 -14.70727 -2.11994 82.16762 -11.25473 -6.144 10.10637 61.37698 4.73068 -12.50042 85.57326 3.40864 -52.57624 25.51344 -109.18153 -16.49528 10.07732 111.34429 -18.21246 -4.83686 -48.27438 -8.23083 -1.71855 -3.16207 117.7598 0.04261 8.30864 -53.67404 -9.21551 3.45369 4.04538
-1.66732 -0.34602 -0.37677 -318.8834 -65.48371 -13.85261 -8.75923 3.30337 8.52457 6.85702 -13.55731 -2.11994 80.70914 -10.98371 -6.0291 10.39095 65.18465 3.16053 -12.75946 82.80717 1.53053 -51.51894 27.64079 -110.21161 -16.8265 10.24821 110.11964 -18.76631 -5.48217 -47.67429 -8.20768 -1.64636 -3.12849 116.54624 0.03492 8.84273 -53.08894 -9.28866 3.36696 4.00666
-1.66527 -0.34359 -0.37634 -317.75213 -64.94758 -12.80203 -8.36622 3.32451 8.81911 5.9777 -12.68307 -2.11994 79.42272 -10.44725 -6.13651 10.50655 67.65877 2.14303 -12.90787 80.66612 0.52987 -50.55995 29.14161 -110.93248 -17.09725 10.35467 108.99275 -19.14067 -6.04921 -47.17865 -8.18776 -1.58061 -3.09741 115.64303 0.04372 8.94322 -52.89162 -9.38028 3.31237 3.98509
-1.66386 -0.34252 -0.3758 -317.73878 -64.29887 -12.55786 -8.15573 3.15577 8.66088 5.13701 -12.56856 -2.11994 78.60571 -9.21447 -6.98306 10.14432 66.13501 2.78563 -12.72332 80.14457 1.88256 -50.8343 29.07591 -111.15709 -17.38953 10.32166 108.14371 -18.99137 -6.32178 -46.98581 -8.17647 -1.54023 -3.07682 115.63022 0.11379 7.90204 -53.86915 -9.63073 3.25438 3.96949
-1.66274 -0.342 -0.37527 -318.14608 -63.61598 -12.62389 -8.01656 2.92163 8.32196 4.33414 -12.73352 -2.11994 77.96925 -7.72813 -8.032 9.61842 63.26997 3.98209 -12.42769 80.26709 4.09191 -51.27357 28.3676 -111.07148 -17.62225 10.22423 107.40543 -18.66039 -6.50015 -46.90322 -8.16852 -1.50766 -3.05938 115.9281 0.20435 6.44274 -55.21518 -9.90248 3.21914 3.96632
-1.66154 -0.34129 -0.37477 -318.36197 -62.96174 -12.55252 -7.85247 2.72004 8.06424 3.53865 -12.7716 -2.11994 77.26629 -6.37758 -8.91361 9.17535 61.09317 4.88609 -12.19787 80.1516 5.87196 -51.56559 27.87818 -111.04095 -17.84434 10.1467 106.63577 -18.41883 -6.71303 -46.77599 -8.15916 -1.47189 -3.04068 116.06659 0.28901 5.19362 -56.31588 -10.13808 3.1784 3.95857
-1.66011 -0.34035 -0.3741 -318.58244 -62.24594 -12.4686 -7.6567 2.50447 7.80657 2.6367 -12.80727 -2.11994 76.49714 -4.93287 -10.11566 8.68518 58.58967 5.95714 -11.91273 79.80659 7.83609 -52.13938 27.67863 -111.35011 -18.22214 10.10611 105.77819 -18.1516 -6.97506 -46.62305 -8.14915 -1.43324 -3.02057 116.27678 0.3555 3.84183 -57.7434 -10.47174 3.12987 3.952
-1.65924 -0.34 -0.3738 -318.89443 -61.65486 -12.48687 -7.54304 2.3053 7.50395 1.96937 -12.91666 -2.11994 75.90723 -3.625 -10.6942 8.26785 56.46528 6.80901 -11.70571 80.09338 9.61688 -52.09355 26.73952 -110.8789 -18.25015 9.97364 105.13518 -17.89297 -7.10625 -46.5503 -8.14153 -1.40316 -3.00451 116.41673 0.46671 2.6156 -58.58152 -10.61463 3.09791 3.9438
-1.65976 -0.34113 -0.37441 -319.32455 -61.38817 -12.66935 -7.64924 2.14183 7.16522 1.90371 -13.14069 -2.11994 75.79196 -2.78094 -9.5458 7.97079 55.469 6.97957 -11.83549 81.94853 10.64837 -51.34863 23.79729 -108.43488 -17.49184 9.61325 105.03045 -17.70904 -6.90862 -46.67817 -8.13763 -1.39244 -2.99751 116.24442 0.68873 1.78492 -57.66442 -10.18586 3.10898 3.92742
-1.66085 -0.34283 -0.37542 -319.83683 -61.25338 -12.95025 -7.83406 2.00139 6.78176 2.0782 -13.43253 -2.11994 75.84847 -2.08055 -7.75811 7.77027 54.93637 6.90196 -12.03415 84.4181 11.46761 -49.83256 20.15635 -105.2069 -16.3619 9.16259 105.14265 -17.53895 -6.57986 -46.88161 -8.13644 -1.39055 -2.99474 115.99814 0.95644 1.10618 -56.14893 -9.57281 3.13379 3.90832
